<svg width="63" height="63" viewBox="0 0 63 63" fill="none" xmlns="http://www.w3.org/2000/svg">
<style>
  path {
    fill: #000000;
  }
  @media (prefers-color-scheme: dark) {
    path {
      fill: #ffffff;
    }
  }
</style>
<path d="M11 19C9.34315 19 8 20.3431 8 22V56.5C8 58.1569 9.34315 59.5 11 59.5H36V33.2426C36 32.447 35.6839 31.6839 35.1213 31.1213L23.8787 19.8787C23.3161 19.3161 22.553 19 21.7574 19H11Z"/>
<path d="M40.2574 4C41.053 4 41.8161 4.31607 42.3787 4.87868L53.6213 16.1213C54.1839 16.6839 54.5 17.447 54.5 18.2426V56.5C54.5 58.1569 53.1569 59.5 51.5 59.5H40V31.5854C40 30.7898 39.6839 30.0267 39.1213 29.4641L25.5359 15.8787C24.9733 15.3161 24.2102 15 23.4146 15H14.5V7C14.5 5.34315 15.8431 4 17.5 4H40.2574Z"/>
</svg>
